<mxfile host="app.diagrams.net" agent="Mozilla/5.0 (Windows NT 10.0; Win64; x64) AppleWebKit/537.36 (KHTML, like Gecko) Chrome/131.0.0.0 Safari/537.36" version="25.0.3">
  <diagram name="หน้า-1" id="exdwC_zPmAMclamAFFTB">
    <mxGraphModel dx="1050" dy="530" grid="1" gridSize="10" guides="1" tooltips="1" connect="1" arrows="1" fold="1" page="1" pageScale="1" pageWidth="827" pageHeight="1169" math="0" shadow="0">
      <root>
        <mxCell id="0" />
        <mxCell id="1" parent="0" />
        <mxCell id="OZiftfBYa-lfdx_jpAxb-7" value="" style="edgeStyle=orthogonalEdgeStyle;rounded=0;orthogonalLoop=1;jettySize=auto;html=1;" edge="1" parent="1" source="OZiftfBYa-lfdx_jpAxb-1" target="OZiftfBYa-lfdx_jpAxb-6">
          <mxGeometry relative="1" as="geometry" />
        </mxCell>
        <mxCell id="OZiftfBYa-lfdx_jpAxb-1" value="Start" style="ellipse;whiteSpace=wrap;html=1;" vertex="1" parent="1">
          <mxGeometry x="354" y="10" width="120" height="80" as="geometry" />
        </mxCell>
        <mxCell id="OZiftfBYa-lfdx_jpAxb-5" value="" style="edgeStyle=orthogonalEdgeStyle;rounded=0;orthogonalLoop=1;jettySize=auto;html=1;" edge="1" parent="1" source="OZiftfBYa-lfdx_jpAxb-2" target="OZiftfBYa-lfdx_jpAxb-4">
          <mxGeometry relative="1" as="geometry" />
        </mxCell>
        <mxCell id="OZiftfBYa-lfdx_jpAxb-2" value="Input Name" style="shape=parallelogram;perimeter=parallelogramPerimeter;whiteSpace=wrap;html=1;fixedSize=1;" vertex="1" parent="1">
          <mxGeometry x="354" y="330" width="120" height="60" as="geometry" />
        </mxCell>
        <mxCell id="OZiftfBYa-lfdx_jpAxb-10" value="F" style="edgeStyle=orthogonalEdgeStyle;rounded=0;orthogonalLoop=1;jettySize=auto;html=1;" edge="1" parent="1" source="OZiftfBYa-lfdx_jpAxb-4" target="OZiftfBYa-lfdx_jpAxb-9">
          <mxGeometry relative="1" as="geometry" />
        </mxCell>
        <mxCell id="OZiftfBYa-lfdx_jpAxb-13" value="T" style="edgeStyle=orthogonalEdgeStyle;rounded=0;orthogonalLoop=1;jettySize=auto;html=1;exitX=0;exitY=0.5;exitDx=0;exitDy=0;entryX=0.5;entryY=0;entryDx=0;entryDy=0;" edge="1" parent="1" source="OZiftfBYa-lfdx_jpAxb-4" target="OZiftfBYa-lfdx_jpAxb-12">
          <mxGeometry relative="1" as="geometry">
            <Array as="points">
              <mxPoint x="340" y="500" />
              <mxPoint x="340" y="740" />
              <mxPoint x="414" y="740" />
            </Array>
          </mxGeometry>
        </mxCell>
        <mxCell id="OZiftfBYa-lfdx_jpAxb-4" value="Name = -1" style="rhombus;whiteSpace=wrap;html=1;" vertex="1" parent="1">
          <mxGeometry x="374" y="460" width="80" height="80" as="geometry" />
        </mxCell>
        <mxCell id="OZiftfBYa-lfdx_jpAxb-8" value="" style="edgeStyle=orthogonalEdgeStyle;rounded=0;orthogonalLoop=1;jettySize=auto;html=1;" edge="1" parent="1" source="OZiftfBYa-lfdx_jpAxb-6" target="OZiftfBYa-lfdx_jpAxb-2">
          <mxGeometry relative="1" as="geometry" />
        </mxCell>
        <mxCell id="OZiftfBYa-lfdx_jpAxb-6" value="" style="shape=waypoint;sketch=0;size=6;pointerEvents=1;points=[];fillColor=default;resizable=0;rotatable=0;perimeter=centerPerimeter;snapToPoint=1;" vertex="1" parent="1">
          <mxGeometry x="404" y="200" width="20" height="20" as="geometry" />
        </mxCell>
        <mxCell id="OZiftfBYa-lfdx_jpAxb-9" value="Input Exp" style="shape=parallelogram;perimeter=parallelogramPerimeter;whiteSpace=wrap;html=1;fixedSize=1;" vertex="1" parent="1">
          <mxGeometry x="354" y="630" width="120" height="60" as="geometry" />
        </mxCell>
        <mxCell id="OZiftfBYa-lfdx_jpAxb-11" style="edgeStyle=orthogonalEdgeStyle;rounded=0;orthogonalLoop=1;jettySize=auto;html=1;exitX=0.5;exitY=1;exitDx=0;exitDy=0;entryX=0.98;entryY=0.22;entryDx=0;entryDy=0;entryPerimeter=0;" edge="1" parent="1" source="OZiftfBYa-lfdx_jpAxb-9" target="OZiftfBYa-lfdx_jpAxb-6">
          <mxGeometry relative="1" as="geometry">
            <Array as="points">
              <mxPoint x="414" y="710" />
              <mxPoint x="490" y="710" />
              <mxPoint x="490" y="210" />
            </Array>
          </mxGeometry>
        </mxCell>
        <mxCell id="OZiftfBYa-lfdx_jpAxb-16" value="F" style="edgeStyle=orthogonalEdgeStyle;rounded=0;orthogonalLoop=1;jettySize=auto;html=1;" edge="1" parent="1" source="OZiftfBYa-lfdx_jpAxb-12" target="OZiftfBYa-lfdx_jpAxb-15">
          <mxGeometry relative="1" as="geometry" />
        </mxCell>
        <mxCell id="OZiftfBYa-lfdx_jpAxb-28" value="T" style="edgeStyle=orthogonalEdgeStyle;rounded=0;orthogonalLoop=1;jettySize=auto;html=1;" edge="1" parent="1" source="OZiftfBYa-lfdx_jpAxb-12" target="OZiftfBYa-lfdx_jpAxb-27">
          <mxGeometry relative="1" as="geometry" />
        </mxCell>
        <mxCell id="OZiftfBYa-lfdx_jpAxb-12" value="Exp = 0 - 1000" style="rhombus;whiteSpace=wrap;html=1;" vertex="1" parent="1">
          <mxGeometry x="366" y="780" width="96" height="80" as="geometry" />
        </mxCell>
        <mxCell id="OZiftfBYa-lfdx_jpAxb-18" value="F" style="edgeStyle=orthogonalEdgeStyle;rounded=0;orthogonalLoop=1;jettySize=auto;html=1;" edge="1" parent="1" source="OZiftfBYa-lfdx_jpAxb-15" target="OZiftfBYa-lfdx_jpAxb-17">
          <mxGeometry relative="1" as="geometry" />
        </mxCell>
        <mxCell id="OZiftfBYa-lfdx_jpAxb-32" value="T" style="edgeStyle=orthogonalEdgeStyle;rounded=0;orthogonalLoop=1;jettySize=auto;html=1;" edge="1" parent="1" source="OZiftfBYa-lfdx_jpAxb-15" target="OZiftfBYa-lfdx_jpAxb-31">
          <mxGeometry relative="1" as="geometry" />
        </mxCell>
        <mxCell id="OZiftfBYa-lfdx_jpAxb-15" value="Exp = 1000 - 2000" style="rhombus;whiteSpace=wrap;html=1;" vertex="1" parent="1">
          <mxGeometry x="543" y="780" width="107" height="80" as="geometry" />
        </mxCell>
        <mxCell id="OZiftfBYa-lfdx_jpAxb-22" value="F" style="edgeStyle=orthogonalEdgeStyle;rounded=0;orthogonalLoop=1;jettySize=auto;html=1;" edge="1" parent="1" source="OZiftfBYa-lfdx_jpAxb-17" target="OZiftfBYa-lfdx_jpAxb-21">
          <mxGeometry relative="1" as="geometry" />
        </mxCell>
        <mxCell id="OZiftfBYa-lfdx_jpAxb-34" value="T" style="edgeStyle=orthogonalEdgeStyle;rounded=0;orthogonalLoop=1;jettySize=auto;html=1;" edge="1" parent="1" source="OZiftfBYa-lfdx_jpAxb-17" target="OZiftfBYa-lfdx_jpAxb-33">
          <mxGeometry relative="1" as="geometry" />
        </mxCell>
        <mxCell id="OZiftfBYa-lfdx_jpAxb-17" value="Exp = 2000 - 3000" style="rhombus;whiteSpace=wrap;html=1;" vertex="1" parent="1">
          <mxGeometry x="743.5" y="780" width="106.5" height="80" as="geometry" />
        </mxCell>
        <mxCell id="OZiftfBYa-lfdx_jpAxb-24" value="F" style="edgeStyle=orthogonalEdgeStyle;rounded=0;orthogonalLoop=1;jettySize=auto;html=1;" edge="1" parent="1" source="OZiftfBYa-lfdx_jpAxb-21" target="OZiftfBYa-lfdx_jpAxb-23">
          <mxGeometry relative="1" as="geometry" />
        </mxCell>
        <mxCell id="OZiftfBYa-lfdx_jpAxb-36" value="T" style="edgeStyle=orthogonalEdgeStyle;rounded=0;orthogonalLoop=1;jettySize=auto;html=1;" edge="1" parent="1" source="OZiftfBYa-lfdx_jpAxb-21" target="OZiftfBYa-lfdx_jpAxb-35">
          <mxGeometry relative="1" as="geometry" />
        </mxCell>
        <mxCell id="OZiftfBYa-lfdx_jpAxb-21" value="Exp = 3000 - 4000" style="rhombus;whiteSpace=wrap;html=1;" vertex="1" parent="1">
          <mxGeometry x="943.25" y="780" width="106.75" height="80" as="geometry" />
        </mxCell>
        <mxCell id="OZiftfBYa-lfdx_jpAxb-38" value="T" style="edgeStyle=orthogonalEdgeStyle;rounded=0;orthogonalLoop=1;jettySize=auto;html=1;" edge="1" parent="1" source="OZiftfBYa-lfdx_jpAxb-23" target="OZiftfBYa-lfdx_jpAxb-37">
          <mxGeometry relative="1" as="geometry" />
        </mxCell>
        <mxCell id="OZiftfBYa-lfdx_jpAxb-42" value="F" style="edgeStyle=orthogonalEdgeStyle;rounded=0;orthogonalLoop=1;jettySize=auto;html=1;" edge="1" parent="1" source="OZiftfBYa-lfdx_jpAxb-23" target="OZiftfBYa-lfdx_jpAxb-41">
          <mxGeometry relative="1" as="geometry" />
        </mxCell>
        <mxCell id="OZiftfBYa-lfdx_jpAxb-23" value="Exp = 4000 - 5000" style="rhombus;whiteSpace=wrap;html=1;" vertex="1" parent="1">
          <mxGeometry x="1143.38" y="780" width="106.63" height="80" as="geometry" />
        </mxCell>
        <mxCell id="OZiftfBYa-lfdx_jpAxb-47" style="edgeStyle=orthogonalEdgeStyle;rounded=0;orthogonalLoop=1;jettySize=auto;html=1;exitX=0.5;exitY=1;exitDx=0;exitDy=0;entryX=0;entryY=0.5;entryDx=0;entryDy=0;" edge="1" parent="1" source="OZiftfBYa-lfdx_jpAxb-27" target="OZiftfBYa-lfdx_jpAxb-43">
          <mxGeometry relative="1" as="geometry" />
        </mxCell>
        <mxCell id="OZiftfBYa-lfdx_jpAxb-27" value="Count x1" style="whiteSpace=wrap;html=1;" vertex="1" parent="1">
          <mxGeometry x="354" y="950" width="120" height="60" as="geometry" />
        </mxCell>
        <mxCell id="OZiftfBYa-lfdx_jpAxb-48" style="edgeStyle=orthogonalEdgeStyle;rounded=0;orthogonalLoop=1;jettySize=auto;html=1;exitX=0.5;exitY=1;exitDx=0;exitDy=0;entryX=1;entryY=0.5;entryDx=0;entryDy=0;" edge="1" parent="1" source="OZiftfBYa-lfdx_jpAxb-31" target="OZiftfBYa-lfdx_jpAxb-43">
          <mxGeometry relative="1" as="geometry" />
        </mxCell>
        <mxCell id="OZiftfBYa-lfdx_jpAxb-31" value="Count x1.2" style="whiteSpace=wrap;html=1;" vertex="1" parent="1">
          <mxGeometry x="536.5" y="950" width="120" height="60" as="geometry" />
        </mxCell>
        <mxCell id="OZiftfBYa-lfdx_jpAxb-49" style="edgeStyle=orthogonalEdgeStyle;rounded=0;orthogonalLoop=1;jettySize=auto;html=1;exitX=0.5;exitY=1;exitDx=0;exitDy=0;entryX=0;entryY=0.5;entryDx=0;entryDy=0;" edge="1" parent="1" source="OZiftfBYa-lfdx_jpAxb-33" target="OZiftfBYa-lfdx_jpAxb-45">
          <mxGeometry relative="1" as="geometry" />
        </mxCell>
        <mxCell id="OZiftfBYa-lfdx_jpAxb-33" value="Count x1.4" style="whiteSpace=wrap;html=1;" vertex="1" parent="1">
          <mxGeometry x="736.75" y="950" width="120" height="60" as="geometry" />
        </mxCell>
        <mxCell id="OZiftfBYa-lfdx_jpAxb-50" style="edgeStyle=orthogonalEdgeStyle;rounded=0;orthogonalLoop=1;jettySize=auto;html=1;exitX=0.5;exitY=1;exitDx=0;exitDy=0;entryX=1;entryY=0.5;entryDx=0;entryDy=0;" edge="1" parent="1" source="OZiftfBYa-lfdx_jpAxb-35" target="OZiftfBYa-lfdx_jpAxb-45">
          <mxGeometry relative="1" as="geometry" />
        </mxCell>
        <mxCell id="OZiftfBYa-lfdx_jpAxb-35" value="Count x1.6" style="whiteSpace=wrap;html=1;" vertex="1" parent="1">
          <mxGeometry x="936.625" y="950" width="120" height="60" as="geometry" />
        </mxCell>
        <mxCell id="OZiftfBYa-lfdx_jpAxb-51" style="edgeStyle=orthogonalEdgeStyle;rounded=0;orthogonalLoop=1;jettySize=auto;html=1;exitX=0.5;exitY=1;exitDx=0;exitDy=0;entryX=0;entryY=0.5;entryDx=0;entryDy=0;" edge="1" parent="1" source="OZiftfBYa-lfdx_jpAxb-37" target="OZiftfBYa-lfdx_jpAxb-46">
          <mxGeometry relative="1" as="geometry" />
        </mxCell>
        <mxCell id="OZiftfBYa-lfdx_jpAxb-37" value="Count x1.8" style="whiteSpace=wrap;html=1;" vertex="1" parent="1">
          <mxGeometry x="1136.6950000000002" y="950" width="120" height="60" as="geometry" />
        </mxCell>
        <mxCell id="OZiftfBYa-lfdx_jpAxb-52" style="edgeStyle=orthogonalEdgeStyle;rounded=0;orthogonalLoop=1;jettySize=auto;html=1;exitX=0.5;exitY=1;exitDx=0;exitDy=0;entryX=1;entryY=0.5;entryDx=0;entryDy=0;" edge="1" parent="1" source="OZiftfBYa-lfdx_jpAxb-41" target="OZiftfBYa-lfdx_jpAxb-46">
          <mxGeometry relative="1" as="geometry" />
        </mxCell>
        <mxCell id="OZiftfBYa-lfdx_jpAxb-41" value="Count x2.0" style="whiteSpace=wrap;html=1;" vertex="1" parent="1">
          <mxGeometry x="1323.3250000000003" y="790" width="120" height="60" as="geometry" />
        </mxCell>
        <mxCell id="OZiftfBYa-lfdx_jpAxb-55" style="edgeStyle=orthogonalEdgeStyle;rounded=0;orthogonalLoop=1;jettySize=auto;html=1;exitX=0.5;exitY=1;exitDx=0;exitDy=0;entryX=0;entryY=0.5;entryDx=0;entryDy=0;" edge="1" parent="1" source="OZiftfBYa-lfdx_jpAxb-43" target="OZiftfBYa-lfdx_jpAxb-54">
          <mxGeometry relative="1" as="geometry" />
        </mxCell>
        <mxCell id="OZiftfBYa-lfdx_jpAxb-43" value="" style="ellipse;whiteSpace=wrap;html=1;aspect=fixed;" vertex="1" parent="1">
          <mxGeometry x="500" y="1040" width="10" height="10" as="geometry" />
        </mxCell>
        <mxCell id="OZiftfBYa-lfdx_jpAxb-56" style="edgeStyle=orthogonalEdgeStyle;rounded=0;orthogonalLoop=1;jettySize=auto;html=1;exitX=0.5;exitY=1;exitDx=0;exitDy=0;entryX=1;entryY=0.5;entryDx=0;entryDy=0;" edge="1" parent="1" source="OZiftfBYa-lfdx_jpAxb-45" target="OZiftfBYa-lfdx_jpAxb-54">
          <mxGeometry relative="1" as="geometry" />
        </mxCell>
        <mxCell id="OZiftfBYa-lfdx_jpAxb-45" value="" style="ellipse;whiteSpace=wrap;html=1;aspect=fixed;" vertex="1" parent="1">
          <mxGeometry x="890" y="1040" width="10" height="10" as="geometry" />
        </mxCell>
        <mxCell id="OZiftfBYa-lfdx_jpAxb-59" style="edgeStyle=orthogonalEdgeStyle;rounded=0;orthogonalLoop=1;jettySize=auto;html=1;exitX=0.5;exitY=1;exitDx=0;exitDy=0;entryX=1;entryY=0.5;entryDx=0;entryDy=0;" edge="1" parent="1" source="OZiftfBYa-lfdx_jpAxb-46" target="OZiftfBYa-lfdx_jpAxb-57">
          <mxGeometry relative="1" as="geometry" />
        </mxCell>
        <mxCell id="OZiftfBYa-lfdx_jpAxb-46" value="" style="ellipse;whiteSpace=wrap;html=1;aspect=fixed;" vertex="1" parent="1">
          <mxGeometry x="1290" y="1040" width="10" height="10" as="geometry" />
        </mxCell>
        <mxCell id="OZiftfBYa-lfdx_jpAxb-58" style="edgeStyle=orthogonalEdgeStyle;rounded=0;orthogonalLoop=1;jettySize=auto;html=1;exitX=0.5;exitY=1;exitDx=0;exitDy=0;entryX=0;entryY=0.5;entryDx=0;entryDy=0;" edge="1" parent="1" source="OZiftfBYa-lfdx_jpAxb-54" target="OZiftfBYa-lfdx_jpAxb-57">
          <mxGeometry relative="1" as="geometry" />
        </mxCell>
        <mxCell id="OZiftfBYa-lfdx_jpAxb-54" value="" style="ellipse;whiteSpace=wrap;html=1;aspect=fixed;" vertex="1" parent="1">
          <mxGeometry x="690" y="1080" width="10" height="10" as="geometry" />
        </mxCell>
        <mxCell id="OZiftfBYa-lfdx_jpAxb-61" value="" style="edgeStyle=orthogonalEdgeStyle;rounded=0;orthogonalLoop=1;jettySize=auto;html=1;" edge="1" parent="1" source="OZiftfBYa-lfdx_jpAxb-57" target="OZiftfBYa-lfdx_jpAxb-60">
          <mxGeometry relative="1" as="geometry" />
        </mxCell>
        <mxCell id="OZiftfBYa-lfdx_jpAxb-57" value="" style="ellipse;whiteSpace=wrap;html=1;aspect=fixed;" vertex="1" parent="1">
          <mxGeometry x="890" y="1120" width="10" height="10" as="geometry" />
        </mxCell>
        <mxCell id="OZiftfBYa-lfdx_jpAxb-63" value="" style="edgeStyle=orthogonalEdgeStyle;rounded=0;orthogonalLoop=1;jettySize=auto;html=1;" edge="1" parent="1" source="OZiftfBYa-lfdx_jpAxb-60" target="OZiftfBYa-lfdx_jpAxb-62">
          <mxGeometry relative="1" as="geometry" />
        </mxCell>
        <mxCell id="OZiftfBYa-lfdx_jpAxb-60" value="Output x1 count" style="shape=parallelogram;perimeter=parallelogramPerimeter;whiteSpace=wrap;html=1;fixedSize=1;" vertex="1" parent="1">
          <mxGeometry x="835" y="1185" width="120" height="60" as="geometry" />
        </mxCell>
        <mxCell id="OZiftfBYa-lfdx_jpAxb-65" value="" style="edgeStyle=orthogonalEdgeStyle;rounded=0;orthogonalLoop=1;jettySize=auto;html=1;" edge="1" parent="1" source="OZiftfBYa-lfdx_jpAxb-62" target="OZiftfBYa-lfdx_jpAxb-64">
          <mxGeometry relative="1" as="geometry" />
        </mxCell>
        <mxCell id="OZiftfBYa-lfdx_jpAxb-62" value="Output x1.2 count" style="shape=parallelogram;perimeter=parallelogramPerimeter;whiteSpace=wrap;html=1;fixedSize=1;" vertex="1" parent="1">
          <mxGeometry x="835" y="1325" width="120" height="60" as="geometry" />
        </mxCell>
        <mxCell id="OZiftfBYa-lfdx_jpAxb-67" value="" style="edgeStyle=orthogonalEdgeStyle;rounded=0;orthogonalLoop=1;jettySize=auto;html=1;" edge="1" parent="1" source="OZiftfBYa-lfdx_jpAxb-64" target="OZiftfBYa-lfdx_jpAxb-66">
          <mxGeometry relative="1" as="geometry" />
        </mxCell>
        <mxCell id="OZiftfBYa-lfdx_jpAxb-64" value="Output x1.4 count" style="shape=parallelogram;perimeter=parallelogramPerimeter;whiteSpace=wrap;html=1;fixedSize=1;" vertex="1" parent="1">
          <mxGeometry x="835" y="1465" width="120" height="60" as="geometry" />
        </mxCell>
        <mxCell id="OZiftfBYa-lfdx_jpAxb-69" value="" style="edgeStyle=orthogonalEdgeStyle;rounded=0;orthogonalLoop=1;jettySize=auto;html=1;" edge="1" parent="1" source="OZiftfBYa-lfdx_jpAxb-66" target="OZiftfBYa-lfdx_jpAxb-68">
          <mxGeometry relative="1" as="geometry" />
        </mxCell>
        <mxCell id="OZiftfBYa-lfdx_jpAxb-66" value="Output x1.6 count" style="shape=parallelogram;perimeter=parallelogramPerimeter;whiteSpace=wrap;html=1;fixedSize=1;" vertex="1" parent="1">
          <mxGeometry x="835" y="1605" width="120" height="60" as="geometry" />
        </mxCell>
        <mxCell id="OZiftfBYa-lfdx_jpAxb-71" value="" style="edgeStyle=orthogonalEdgeStyle;rounded=0;orthogonalLoop=1;jettySize=auto;html=1;" edge="1" parent="1" source="OZiftfBYa-lfdx_jpAxb-68" target="OZiftfBYa-lfdx_jpAxb-70">
          <mxGeometry relative="1" as="geometry" />
        </mxCell>
        <mxCell id="OZiftfBYa-lfdx_jpAxb-68" value="Output x1.8 count" style="shape=parallelogram;perimeter=parallelogramPerimeter;whiteSpace=wrap;html=1;fixedSize=1;" vertex="1" parent="1">
          <mxGeometry x="835" y="1745" width="120" height="60" as="geometry" />
        </mxCell>
        <mxCell id="OZiftfBYa-lfdx_jpAxb-73" value="" style="edgeStyle=orthogonalEdgeStyle;rounded=0;orthogonalLoop=1;jettySize=auto;html=1;" edge="1" parent="1" source="OZiftfBYa-lfdx_jpAxb-70" target="OZiftfBYa-lfdx_jpAxb-72">
          <mxGeometry relative="1" as="geometry" />
        </mxCell>
        <mxCell id="OZiftfBYa-lfdx_jpAxb-70" value="Output x2.0 count" style="shape=parallelogram;perimeter=parallelogramPerimeter;whiteSpace=wrap;html=1;fixedSize=1;" vertex="1" parent="1">
          <mxGeometry x="835" y="1885" width="120" height="60" as="geometry" />
        </mxCell>
        <mxCell id="OZiftfBYa-lfdx_jpAxb-75" value="" style="edgeStyle=orthogonalEdgeStyle;rounded=0;orthogonalLoop=1;jettySize=auto;html=1;" edge="1" parent="1" source="OZiftfBYa-lfdx_jpAxb-72" target="OZiftfBYa-lfdx_jpAxb-74">
          <mxGeometry relative="1" as="geometry" />
        </mxCell>
        <mxCell id="OZiftfBYa-lfdx_jpAxb-72" value="Output highest paid employee" style="shape=parallelogram;perimeter=parallelogramPerimeter;whiteSpace=wrap;html=1;fixedSize=1;" vertex="1" parent="1">
          <mxGeometry x="827" y="2030" width="135" height="60" as="geometry" />
        </mxCell>
        <mxCell id="OZiftfBYa-lfdx_jpAxb-77" value="" style="edgeStyle=orthogonalEdgeStyle;rounded=0;orthogonalLoop=1;jettySize=auto;html=1;" edge="1" parent="1" source="OZiftfBYa-lfdx_jpAxb-74" target="OZiftfBYa-lfdx_jpAxb-76">
          <mxGeometry relative="1" as="geometry" />
        </mxCell>
        <mxCell id="OZiftfBYa-lfdx_jpAxb-74" value="Output lowest paid employee" style="shape=parallelogram;perimeter=parallelogramPerimeter;whiteSpace=wrap;html=1;fixedSize=1;" vertex="1" parent="1">
          <mxGeometry x="827.25" y="2170" width="135.5" height="60" as="geometry" />
        </mxCell>
        <mxCell id="OZiftfBYa-lfdx_jpAxb-76" value="End" style="ellipse;whiteSpace=wrap;html=1;" vertex="1" parent="1">
          <mxGeometry x="835" y="2310" width="120" height="80" as="geometry" />
        </mxCell>
      </root>
    </mxGraphModel>
  </diagram>
</mxfile>
